<?xml version="1.0" encoding="utf-8"?>
<!-- Generator: Adobe Illustrator 25.2.1, SVG Export Plug-In . SVG Version: 6.00 Build 0)  -->
<svg version="1.1" id="圖層_1" xmlns="http://www.w3.org/2000/svg" xmlns:xlink="http://www.w3.org/1999/xlink" x="0px" y="0px"
	 viewBox="0 0 57.6 57.6" style="enable-background:new 0 0 57.6 57.6;" xml:space="preserve">
<style type="text/css">
	.st0{fill:#FFFFFF;}
	.st1{fill:#C69314;}
	.st2{clip-path:url(#SVGID_2_);}
	.st3{fill:none;stroke:#040000;stroke-miterlimit:10;}
</style>
<g id="圖層_2_1_">
	<g id="圖層_1-2">
		<circle class="st0" cx="28.6" cy="28.4" r="27.8"/>
		<path class="st1" d="M28.8,57.6C12.9,57.6,0,44.7,0,28.8S12.9,0,28.8,0s28.8,12.9,28.8,28.8c0,0,0,0,0,0
			C57.6,44.7,44.7,57.6,28.8,57.6z M28.8,1.4C13.7,1.4,1.4,13.7,1.4,28.8s12.2,27.4,27.4,27.4s27.4-12.2,27.4-27.4c0,0,0,0,0,0
			C56.1,13.7,43.9,1.4,28.8,1.4z"/>
		<g>
			<defs>
				<path id="SVGID_1_" d="M28.8,57.6C12.9,57.6,0,44.7,0,28.8S12.9,0,28.8,0s28.8,12.9,28.8,28.8c0,0,0,0,0,0
					C57.6,44.7,44.7,57.6,28.8,57.6z M28.8,1.4C13.7,1.4,1.4,13.7,1.4,28.8s12.2,27.4,27.4,27.4s27.4-12.2,27.4-27.4c0,0,0,0,0,0
					C56.1,13.7,43.9,1.4,28.8,1.4z"/>
			</defs>
			<clipPath id="SVGID_2_">
				<use xlink:href="#SVGID_1_"  style="overflow:visible;"/>
			</clipPath>
			<g class="st2">
				<path class="st3" d="M15.7,34l8.5-8.5c2.6-2.5,6.7-2.5,9.2,0l8.5,8.5"/>
			</g>
		</g>
		<path class="st1" d="M31.6,22.8c-0.9-1.6-2.9-2.1-4.5-1.2c-0.5,0.3-0.9,0.7-1.2,1.2l-5.3,9.1c-0.9,1.6-0.4,3.6,1.2,4.5
			c0.5,0.3,1.1,0.4,1.6,0.4H34c1.8,0,3.3-1.5,3.3-3.3c0-0.6-0.2-1.2-0.4-1.7L31.6,22.8z"/>
	</g>
</g>
</svg>
