<svg xmlns="http://www.w3.org/2000/svg" xmlns:xlink="http://www.w3.org/1999/xlink" viewBox="0 0 289.67 155.84"><defs><style>.cls-1{fill:none;}.cls-2{opacity:0.53;}.cls-3{fill:#fff;}.cls-4{fill:#efd073;}.cls-5{opacity:0.8;}.cls-6{fill:#e5bb49;}.cls-7{fill:#363638;}.cls-8{fill:url(#未命名漸層_3);}.cls-9{clip-path:url(#clip-path);}.cls-10{fill:#0099b5;}.cls-10,.cls-14{opacity:0.4;isolation:isolate;}.cls-11{opacity:0.77;}.cls-12{fill:url(#未命名漸層_5);}.cls-13{fill:url(#未命名漸層_5-2);}.cls-14{fill:#008092;}.cls-15{clip-path:url(#clip-path-2);}.cls-16{fill:#00a990;}.cls-17{fill:#f45782;}.cls-18{fill:#3e8974;}</style><linearGradient id="未命名漸層_3" x1="73.79" y1="-3778.8" x2="98.35" y2="-3751.01" gradientTransform="matrix(1, 0, 0, -1, 174.94, -3690.21)" gradientUnits="userSpaceOnUse"><stop offset="0.03" stop-color="#008092"/><stop offset="1" stop-color="#00cdc4"/></linearGradient><clipPath id="clip-path"><rect class="cls-1" x="238.02" y="56.56" width="41.29" height="41.57" rx="9.34" transform="translate(-10.73 59.6) rotate(-12.88)"/></clipPath><linearGradient id="未命名漸層_5" x1="79.91" y1="-3773.95" x2="112.12" y2="-3778.45" gradientTransform="matrix(0.97, -0.22, -0.22, -0.97, -662.7, -3576.77)" gradientUnits="userSpaceOnUse"><stop offset="0" stop-color="#8e9093"/><stop offset="1" stop-color="#00c1c4"/></linearGradient><linearGradient id="未命名漸層_5-2" x1="97.88" y1="-3755.67" x2="105.29" y2="-3755.67" xlink:href="#未命名漸層_5"/><clipPath id="clip-path-2"><polyline class="cls-1" points="277.24 65.47 274.39 53.01 233.9 62.27 236.75 74.72"/></clipPath></defs><g id="圖層_2" data-name="圖層 2"><g id="圖層_1-2" data-name="圖層 1"><g class="cls-2"><path class="cls-3" d="M136.44,56.36A65.08,65.08,0,0,1,108.72,40C97.05,28.48,72.11,8.21,45.1,13.06c-37.25,6.7-41.81,39.81-34.9,59s65.91,80.69,152.58,83.68c77.56,2.68,103.89-81.21,65.13-102.18C194.28,35.41,177.64,68.15,136.44,56.36Z"/></g><circle class="cls-4" cx="275.14" cy="27.26" r="4.73" transform="translate(242.51 301.82) rotate(-88.88)"/><g class="cls-5"><path class="cls-3" d="M236,52c0-24-20-50.24-44.81-51.83L189.9.05c-35.62-1.66-38.33,41.78-70.56,46.68S62.51,26.89,24,43c-34.63,14.49-44,95.93,57.74,99.2C163.1,144.84,236,123.48,236,52Z"/></g><circle class="cls-4" cx="240.2" cy="84.03" r="49.23"/><path class="cls-6" d="M264.55,111.65,250.08,57.07a5.17,5.17,0,0,0-6.33-3.68L214.28,61.2a5.18,5.18,0,0,0-3.68,6.33l14.48,54.59a5.17,5.17,0,0,0,6.33,3.68L260.88,118A5.18,5.18,0,0,0,264.55,111.65Z"/><rect class="cls-7" x="222.8" y="47.31" width="40.84" height="66.83" rx="5.18" transform="translate(-12.57 65.02) rotate(-14.85)"/><rect class="cls-3" x="224.95" y="50.83" width="36.54" height="59.8" rx="3.68" transform="translate(-12.57 65.02) rotate(-14.85)"/><path class="cls-7" d="M240.88,53.55,231.79,56a2.82,2.82,0,0,1-3.45-2l-.65-2.46,14.54-3.86.65,2.47A2.83,2.83,0,0,1,240.88,53.55Z"/><g id="圖層_2-2" data-name="圖層 2"><g id="圖層_1-2-2" data-name="圖層 1-2"><rect class="cls-8" x="238.02" y="56.56" width="41.29" height="41.57" rx="9.34" transform="translate(-10.73 59.6) rotate(-12.88)"/><g class="cls-9"><rect class="cls-10" x="234.29" y="55.9" width="42.21" height="14.38" transform="translate(-7.64 58.51) rotate(-12.88)"/><g class="cls-11"><path class="cls-12" d="M286.76,89.56a3.66,3.66,0,0,1-1,.24c-14.11,1.69-22.09-6.31-22.42-6.65a4.43,4.43,0,0,1,.07-6.24,4.34,4.34,0,0,1,6.14,0h0c.28.28,5.53,5.25,15.15,4.1a4.41,4.41,0,0,1,2.09,8.51Z"/></g><path class="cls-3" d="M285.38,85.64a4,4,0,0,1-1,.23,28.41,28.41,0,0,1-20.05-4,15.27,15.27,0,0,1-2.12-1.65,4.32,4.32,0,0,1,4.92-7c.92.47,1.62,1.28,2.56,1.82a20,20,0,0,0,13.66,2.5A4,4,0,0,1,288,80.72c0,.09,0,.17,0,.26A4.35,4.35,0,0,1,285.38,85.64Z"/><polygon class="cls-13" points="268.83 58.28 276.83 60.04 277.97 65.3 272.86 66.47 268.83 58.28"/><polygon class="cls-14" points="274.07 51.64 232.93 61.05 236.23 74.84 277.37 65.43 274.07 51.64"/></g><g class="cls-15"><path class="cls-3" d="M273.82,77.68,247.9,86.94a2.89,2.89,0,0,1-3.68-1.75l-5.13-14.38a2.88,2.88,0,0,1,1.73-3.68h0l25.93-9.25a2.88,2.88,0,0,1,3.67,1.76l0,0,5.13,14.38A2.87,2.87,0,0,1,273.82,77.68Z"/></g><path class="cls-16" d="M262.8,62.16c.23,0,.47-.36.75-.17s.68.19.63.55a4,4,0,0,0,.94.64.11.11,0,0,0,.13,0l-.09,0c.08-.09.33-.07.46-.1a.37.37,0,0,1,.34,0c.08.09.13.23.24.31h0a1.81,1.81,0,0,0,.25.3c.52.05.86.57,1.35.72a6.28,6.28,0,0,0,1.89.63c0,.09.09.08.13.09h0a.45.45,0,0,0-.28,0c.1.11.29,0,.36.14l-.21,0,.08,0c.07,0-.21,0-.3,0a11.73,11.73,0,0,1-1.43-.42h0a5.46,5.46,0,0,0,1.24.47.52.52,0,0,1,.4.15c.09.1-.1,0-.12,0l-.09,0h0l.08,0A6.87,6.87,0,0,1,268,65.1c-.22-.1-.45-.15-.68-.26s-.07,0-.08,0c.27.12.52.19.78.29a3.92,3.92,0,0,1-1.46-.61c-.19-.12-.46-.37-.7-.27s-.24.06-.33.17-.16-.07-.23,0-.28.07-.27.27-.38.08-.38.25h0c-.24.18-.62.21-.75.5s-.15,0-.21,0h0l-.17,0c-.06,0,.05-.09,0-.11s-.16.14-.23.21.1-.14.13-.24-.13,0-.18,0,0-.12,0-.1.21,0,.21-.24l-.1,0,.26-.32s-.14-.08-.19,0h0l-.18,0h0a.83.83,0,0,0,.12-.16h0c.18-.16.35-.33.53-.47h0a.15.15,0,0,0-.21.05h0c.18,0-.05-.2.14-.27s.11-.28.2-.38c-.21-.12-.34-.4-.56-.44s-.14,0-.17-.09c-.24.05-.51.22-.71,0a.93.93,0,0,0-.4.09,1.57,1.57,0,0,0-.14.38,1.18,1.18,0,0,0-.16.38,1.17,1.17,0,0,1-.4.53h0c-.09.23-.44.22-.58.48h0a.11.11,0,0,0-.12.1h0a.27.27,0,0,0-.17.19c0,.07-.56.36-.75.62h0c-.42.19-.56.56-.78,1a1.62,1.62,0,0,1-.25.39c0,.11-.11.18-.15.24a.85.85,0,0,0,.13-.32c0-.1-.1.2-.2.29s0-.12,0-.16l-.14.15.11-.22c-.08,0-.14.18-.22.21l-.13,0h0a1.31,1.31,0,0,0,.19-.27c-.1,0-.18.11-.27.06s0-.07-.08,0,.12-.12.13-.2-.13,0-.18,0,.12-.15.06-.24-.12.17-.26.24c.11-.22.3-.39.4-.63h0a4.22,4.22,0,0,1,.88-1.09c.25-.22.6-.38.74-.69a1.19,1.19,0,0,0,.15-.35l.07,0a1.34,1.34,0,0,1,.61-.35c.08-.12.31-.07.34-.26a10.86,10.86,0,0,0,.4-1.22c.05-.12.11-.32.27-.39A5.9,5.9,0,0,1,262.8,62.16Z"/><path class="cls-17" d="M267.13,76.21A2.21,2.21,0,0,1,266,79.12h0a2.19,2.19,0,1,1,1.14-2.92Z"/></g></g><path d="M105.19,81.9v1.33h-16V81.9H98a57.16,57.16,0,0,0,2.66-8.66l1.52.29a86.57,86.57,0,0,1-2.74,8.37Zm-.72-9.63H90V71h14.46ZM94.19,81.13a56.57,56.57,0,0,0-1.7-7.56l1.34-.33a70.47,70.47,0,0,1,1.78,7.55ZM96.8,70.74a21.75,21.75,0,0,0-.87-2.92l1.3-.34a24.12,24.12,0,0,1,.93,2.86Z"/><path d="M113.05,77.87a37.89,37.89,0,0,1,2.5,4.59l-1.2.67c-.2-.49-.49-1.14-.83-1.8-4.54,1.6-5.13,1.85-5.51,2.14a5.42,5.42,0,0,0-.56-1.37,1.19,1.19,0,0,0,.76-1.13V68.51h6.86V77h-5.53v4.43L113,80.26c-.36-.64-.74-1.29-1.06-1.85Zm-3.51-8.16v2.34h4.21V69.71Zm4.21,6V73.26h-4.21v2.48Zm8.86,3.17c0,.76-.16,1.14-.65,1.35a6.52,6.52,0,0,1-2.61.24,4.68,4.68,0,0,0-.39-1.28c.93,0,1.76,0,2,0s.35-.07.35-.33v-9H118V84h-1.32V68.61h5.89Z"/><path d="M133.57,70.22v3.2l.23-.27a45,45,0,0,1,6.4,3.73l-.94,1.21a40.92,40.92,0,0,0-5.69-3.59V84h-1.42V70.22h-6.88V68.88h15.9v1.34Z"/><path d="M158.47,74a23.45,23.45,0,0,1-2.69,6.14c.49,1.53,1.16,2.41,1.93,2.41.43,0,.63-.79.72-2.88a3.57,3.57,0,0,0,1.06.69c-.21,2.7-.63,3.51-1.89,3.51s-2.07-.9-2.72-2.43A14,14,0,0,1,152.29,84a4.25,4.25,0,0,0-1-1c.36-.25.66-.51,1-.79H148.8V84h-1.19v-1.8h-4.18v-1h4.18v-1h-3.33V75.85h3.31V74.9H143.7v-1h3.89v-1.1h1.23v1.1h3.81v1h-3.81v.95h3.25v4.36H148.8v1h3.89v.68a13.44,13.44,0,0,0,1.65-2,35.54,35.54,0,0,1-1-7.31H143.23V71.53h4.34V70.09h-3.44V69h3.44V67.57h1.28V69H152v1.08h-3.15v1.44h4.39c-.05-1.26-.09-2.57-.09-3.92h1.34c0,1.36,0,2.68,0,3.92h4.72v1.08H154.6a38.8,38.8,0,0,0,.72,5.78,21.92,21.92,0,0,0,1.94-4.75Zm-13.18,3.65h2.39v-1h-2.39Zm0,1.79h2.39v-1h-2.39ZM151,76.64h-2.3v1H151Zm0,1.75h-2.3v1H151ZM157.8,71a14.41,14.41,0,0,0-2.41-2.56l1-.65a14.25,14.25,0,0,1,2.49,2.49Z"/><path class="cls-18" d="M94.21,106.62v1.88H75.6v-1.88h8.09v-6.19h-6.2v-1.9h6.2V93.36H76.56V91.47H93.23v1.89H85.79v5.17h6.59v1.9H85.79v6.19Zm-5.4-5.54c1.21,1.14,2.88,2.7,3.71,3.68l-1.43,1.3c-.8-1-2.46-2.65-3.67-3.86Z"/><path class="cls-18" d="M114,94.47v14.75h-2v-1.5H97.51V94.53h2v11.21h5.17V90.36h2v15.38H112V94.47Z"/><path class="cls-18" d="M116.61,92.3h2.5l1.44,8,.81,4.92h.08c.34-1.64.69-3.29,1-4.92l2-8h2.12l2,8c.36,1.61.69,3.25,1,4.92h.1c.25-1.67.52-3.31.77-4.92l1.46-8h2.31l-3,15.34h-3l-2.06-8.52c-.27-1.21-.5-2.36-.71-3.53h-.11c-.2,1.17-.45,2.32-.7,3.53l-2,8.52h-2.91Z"/><path class="cls-18" d="M135.58,104.6c0-2.46,2.09-3.73,6.86-4.25,0-1.34-.5-2.51-2.19-2.51A6.34,6.34,0,0,0,136.94,99l-.9-1.62a8.7,8.7,0,0,1,4.63-1.51c2.85,0,4.17,1.82,4.17,4.86v6.9h-2l-.21-1.31h-.06a5.76,5.76,0,0,1-3.65,1.58A3.17,3.17,0,0,1,135.58,104.6Zm6.86.08v-2.81c-3.4.41-4.55,1.27-4.55,2.56,0,1.13.78,1.58,1.8,1.58A4,4,0,0,0,142.44,104.68Z"/><path class="cls-18" d="M148.24,105V91h2.37v14c0,.64.29.87.58.87a1.74,1.74,0,0,0,.4,0l.31,1.81a3.69,3.69,0,0,1-1.29.19C148.88,107.91,148.24,106.81,148.24,105Z"/><path class="cls-18" d="M154.45,105V91h2.37v14c0,.64.3.87.59.87a1.67,1.67,0,0,0,.39,0l.32,1.81a3.75,3.75,0,0,1-1.3.19C155.09,107.91,154.45,106.81,154.45,105Z"/><path class="cls-18" d="M159.85,101.93c0-3.73,2.54-6.05,5.23-6.05,3,0,4.67,2.19,4.67,5.45a5.57,5.57,0,0,1-.11,1.2H162.2a3.47,3.47,0,0,0,3.55,3.51,4.9,4.9,0,0,0,2.73-.86l.83,1.52a6.92,6.92,0,0,1-3.88,1.21C162.33,107.91,159.85,105.7,159.85,101.93Zm7.84-1c0-2-.9-3.13-2.57-3.13-1.44,0-2.71,1.11-2.94,3.13Z"/><path class="cls-18" d="M172.59,103.89v-5.8h-1.67V96.3l1.77-.12L173,93h2v3.17h3v1.91h-3v5.82c0,1.38.48,2.08,1.67,2.08a3.3,3.3,0,0,0,1.23-.27l.44,1.78a7.64,7.64,0,0,1-2.25.41C173.48,107.91,172.59,106.31,172.59,103.89Z"/><circle class="cls-16" cx="22.39" cy="124.61" r="12.57"/></g></g></svg>